<svg width="40" height="40" viewBox="0 0 40 40" fill="none" xmlns="http://www.w3.org/2000/svg">
  <!-- Outer hexagon representing technology structure -->
  <path d="M20 2L35 11V29L20 38L5 29V11L20 2Z" stroke="#2563eb" stroke-width="2" fill="none"/>
  
  <!-- Inner circuit pattern -->
  <circle cx="20" cy="20" r="6" fill="#2563eb"/>
  <circle cx="20" cy="20" r="3" fill="#ffffff"/>
  
  <!-- Connection nodes -->
  <circle cx="20" cy="8" r="2" fill="#3b82f6"/>
  <circle cx="20" cy="32" r="2" fill="#3b82f6"/>
  <circle cx="11" cy="14" r="2" fill="#3b82f6"/>
  <circle cx="29" cy="14" r="2" fill="#3b82f6"/>
  <circle cx="11" cy="26" r="2" fill="#3b82f6"/>
  <circle cx="29" cy="26" r="2" fill="#3b82f6"/>
  
  <!-- Connection lines -->
  <line x1="20" y1="14" x2="20" y2="8" stroke="#2563eb" stroke-width="1.5"/>
  <line x1="20" y1="26" x2="20" y2="32" stroke="#2563eb" stroke-width="1.5"/>
  <line x1="14" y1="17" x2="11" y2="14" stroke="#2563eb" stroke-width="1.5"/>
  <line x1="26" y1="17" x2="29" y2="14" stroke="#2563eb" stroke-width="1.5"/>
  <line x1="14" y1="23" x2="11" y2="26" stroke="#2563eb" stroke-width="1.5"/>
  <line x1="26" y1="23" x2="29" y2="26" stroke="#2563eb" stroke-width="1.5"/>
</svg>
